<?xml version="1.0" encoding="UTF-8"?>
<svg xmlns="http://www.w3.org/2000/svg" 
     width="600mm" 
     height="400mm" 
     viewBox="0 0 600 400">
  <title>PlanarNest Export</title>
  <desc>Generated by PlanarNest Desktop</desc>
  
  <!-- Sheet 1: Sheet 1 -->
   <g id="sheet-1" transform="translate(0, 0)">
  
     <!-- Placed Parts -->
    <g id="part-0-0">
      <path id="polygon1_0" d="M167.7813 174.162L177.7813 124.162 192.7813 134.162 187.7813 154.162 167.7813 174.162Z" fill="none" stroke="#e74c3c" stroke-width="0.25" stroke-linejoin="round" stroke-linecap="round" />
    </g>
    <g id="part-0-1">
      <path id="polygon2_0" d="M132.403 275.8239L132.403 310.8239 97.40299999999999 300.8239 132.403 275.8239Z" fill="none" stroke="#3498db" stroke-width="0.25" stroke-linejoin="round" stroke-linecap="round" />
    </g>
    <g id="part-0-2">
      <path id="polygon3_0" d="M127.9178 326.1303L132.9178 341.1303 122.9178 361.1303 107.9178 346.1303 117.9178 331.1303 127.9178 326.1303Z" fill="none" stroke="#2ecc71" stroke-width="0.25" stroke-linejoin="round" stroke-linecap="round" />
    </g>
    <g id="part-0-3">
      <path id="polygon4_0" d="M167.6861 305.9526L187.6861 290.9526 192.6861 325.9526 157.6861 340.9526 167.6861 305.9526Z" fill="none" stroke="#f39c12" stroke-width="0.25" stroke-linejoin="round" stroke-linecap="round" />
    </g>
    <g id="part-0-4">
      <path id="polygon5_0" d="M6.2782 241.2566L11.278199999999991 191.2566 21.278199999999988 176.2566 31.27819999999999 181.2566 41.27819999999999 216.2566 31.2782 236.2566 6.2782 241.2566Z" fill="none" stroke="#9b59b6" stroke-width="0.25" stroke-linejoin="round" stroke-linecap="round" />
    </g>
    <g id="part-0-5">
      <path id="polygon6_0" d="M50.8271 327.1253L75.8271 317.1253 70.8271 337.1253 50.8271 332.1253 50.8271 327.1253Z" fill="none" stroke="#1abc9c" stroke-width="0.25" stroke-linejoin="round" stroke-linecap="round" />
    </g>
    <g id="part-0-6">
      <path id="polygon7_0" d="M93.309 177.1772L83.309 142.1772 113.309 157.1772 93.309 177.1772Z" fill="none" stroke="#e74c3c" stroke-width="0.25" stroke-linejoin="round" stroke-linecap="round" />
    </g>
    <g id="part-0-7">
      <path id="polygon8_0" d="M106.8768 306.964L71.8768 316.964 61.8768 306.964 76.8768 301.964 86.8768 296.964 106.8768 306.964Z" fill="none" stroke="#3498db" stroke-width="0.25" stroke-linejoin="round" stroke-linecap="round" />
    </g>
    <g id="part-0-8">
      <path id="polygon9_0" d="M133.5106 315.0059L133.5106 285.0059 143.5106 275.0059 168.5106 300.0059 133.5106 315.0059Z" fill="none" stroke="#2ecc71" stroke-width="0.25" stroke-linejoin="round" stroke-linecap="round" />
    </g>
    <g id="part-0-9">
      <path id="polygon10_0" d="M177.648 399.4397L137.648 399.4397 137.648 384.4397 177.648 364.4397 192.648 374.4397 177.648 399.4397Z" fill="none" stroke="#f39c12" stroke-width="0.25" stroke-linejoin="round" stroke-linecap="round" />
    </g>
    <g id="part-0-10">
      <path id="polygon11_0" d="M73.6031 374.3916L73.60309999999998 339.3916 88.6031 359.3916 103.60309999999998 344.3916 98.6031 379.3916 73.6031 374.3916Z" fill="none" stroke="#9b59b6" stroke-width="0.25" stroke-linejoin="round" stroke-linecap="round" />
    </g>
    <g id="part-0-11">
      <path id="polygon12_0" d="M54.433 281.6746L74.43299999999999 291.6746 89.43299999999999 286.6746 79.43299999999999 296.6746 59.433 306.6746 69.43299999999999 316.6746 44.433 321.6746 54.433 281.6746Z" fill="none" stroke="#1abc9c" stroke-width="0.25" stroke-linejoin="round" stroke-linecap="round" />
    </g>
    <g id="part-0-12">
      <path id="polygon13_0" d="M142.9282 369.4419L127.9282 399.4419 97.9282 399.4419 122.9282 389.4419 142.9282 369.4419Z" fill="none" stroke="#e74c3c" stroke-width="0.25" stroke-linejoin="round" stroke-linecap="round" />
    </g>
    <g id="part-0-13">
      <path id="polygon14_0" d="M127.1456 121.6893L177.1456 121.6893 172.1456 141.6893 147.1456 131.6893 137.1456 136.6893 127.1456 121.6893Z" fill="none" stroke="#3498db" stroke-width="0.25" stroke-linejoin="round" stroke-linecap="round" />
    </g>
    <g id="part-0-14">
      <path id="polygon15_0" d="M67.6837 171.9106L42.6837 186.9106 32.6837 176.9106 27.6837 166.9106 57.6837 161.9106 67.6837 171.9106Z" fill="none" stroke="#2ecc71" stroke-width="0.25" stroke-linejoin="round" stroke-linecap="round" />
    </g>
    <g id="part-0-15">
      <path id="polygon16_0" d="M92.452 350.9295L72.452 335.9295 82.452 315.9295 107.452 310.9295 127.452 310.9295 112.452 335.9295 92.452 350.9295Z" fill="none" stroke="#f39c12" stroke-width="0.25" stroke-linejoin="round" stroke-linecap="round" />
    </g>
    <g id="part-0-16">
      <path id="polygon17_0" d="M53.5492 156.3075L33.5492 156.3075 18.5492 176.3075 8.549199999999992 146.3075 28.549199999999995 146.3075 53.54919999999999 141.3075 53.5492 156.3075Z" fill="none" stroke="#9b59b6" stroke-width="0.25" stroke-linejoin="round" stroke-linecap="round" />
    </g>
    <g id="part-0-17">
      <path id="polygon18_0" d="M94.908 194.8783L64.908 194.8783 49.908 189.8783 89.908 169.8783 94.908 194.8783Z" fill="none" stroke="#1abc9c" stroke-width="0.25" stroke-linejoin="round" stroke-linecap="round" />
    </g>
    <g id="part-0-18">
      <path id="polygon19_0" d="M156.6528 216.369L161.6528 231.369 146.6528 251.369 146.6528 271.369 121.65280000000001 276.369 136.6528 221.369 156.6528 216.369Z" fill="none" stroke="#e74c3c" stroke-width="0.25" stroke-linejoin="round" stroke-linecap="round" />
    </g>
    <g id="part-0-19">
      <path id="polygon20_0" d="M27.6355 303.7934L2.6354999999999964 283.7934 2.6354999999999915 258.7934 27.63549999999999 238.79340000000002 22.635499999999993 273.7934 42.63549999999999 273.7934 42.6355 293.7934 27.6355 303.7934Z" fill="none" stroke="#3498db" stroke-width="0.25" stroke-linejoin="round" stroke-linecap="round" />
    </g>
    <g id="part-0-20">
      <path id="polygon21_0" d="M76.9358 199.1151L56.9358 214.1151 41.9358 214.1151 36.9358 189.1151 76.9358 199.1151Z" fill="none" stroke="#2ecc71" stroke-width="0.25" stroke-linejoin="round" stroke-linecap="round" />
    </g>
    <g id="part-0-21">
      <path id="polygon22_0" d="M109.856 222.497L99.856 242.497 64.856 237.497 49.855999999999995 217.497 99.856 202.497 109.856 222.497Z" fill="none" stroke="#f39c12" stroke-width="0.25" stroke-linejoin="round" stroke-linecap="round" />
    </g>
    <g id="part-0-22">
      <path id="polygon23_0" d="M105.1605 293.7367L85.1605 278.7367 65.16049999999998 238.73669999999998 100.16049999999998 243.73669999999998 115.1605 283.7367 105.1605 293.7367Z" fill="none" stroke="#9b59b6" stroke-width="0.25" stroke-linejoin="round" stroke-linecap="round" />
    </g>
    <g id="part-0-23">
      <path id="polygon24_0" d="M12.855400000000003 121.8553L27.855400000000003 131.8553 32.8554 141.8553 2.855400000000003 141.8553 2.855400000000003 121.8553 12.855400000000003 121.8553Z" fill="none" stroke="#1abc9c" stroke-width="0.25" stroke-linejoin="round" stroke-linecap="round" />
    </g>
    <g id="part-0-24">
      <path id="polygon25_0" d="M120.4436 133.3609L155.4436 143.3609 115.4436 148.3609 120.4436 133.3609Z" fill="none" stroke="#e74c3c" stroke-width="0.25" stroke-linejoin="round" stroke-linecap="round" />
    </g>
    <g id="part-0-25">
      <path id="polygon26_0" d="M41.9087 371.8464L21.9087 351.8464 16.9087 336.8464 31.9087 346.8464 41.9087 371.8464Z" fill="none" stroke="#3498db" stroke-width="0.25" stroke-linejoin="round" stroke-linecap="round" />
    </g>
    <g id="part-0-26">
      <path id="polygon27_0" d="M103.4171 240.4047L128.4171 240.4047 123.4171 265.4047 113.4171 275.4047 103.4171 240.4047Z" fill="none" stroke="#2ecc71" stroke-width="0.25" stroke-linejoin="round" stroke-linecap="round" />
    </g>
    <g id="part-0-27">
      <path id="polygon28_0" d="M189.1972 369.8042L164.1972 354.8042 144.1972 379.8042 144.1972 364.8042 164.1972 339.8042 189.1972 369.8042Z" fill="none" stroke="#f39c12" stroke-width="0.25" stroke-linejoin="round" stroke-linecap="round" />
    </g>
    <g id="part-0-28">
      <path id="polygon29_0" d="M10.5618 397.3802L0.5617999999999972 382.3802 0.5617999999999935 362.3802 15.561799999999991 352.3802 30.561799999999995 362.3802 10.561799999999995 372.3802 10.561799999999996 382.3802 15.561799999999996 382.3802 10.5618 397.3802Z" fill="none" stroke="#9b59b6" stroke-width="0.25" stroke-linejoin="round" stroke-linecap="round" />
    </g>
    <g id="part-0-29">
      <path id="polygon30_0" d="M26.7226 259.76509999999996L36.7226 244.7651 36.7226 229.7651 46.7226 234.7651 56.7226 229.7651 71.7226 254.7651 46.7226 269.76509999999996 26.7226 259.76509999999996Z" fill="none" stroke="#1abc9c" stroke-width="0.25" stroke-linejoin="round" stroke-linecap="round" />
    </g>
    <g id="part-0-30">
      <path id="polygon31_0" d="M52.3887 386.0328L37.38869999999999 356.0328 62.3887 361.0328 72.3887 351.0328 67.3887 371.0328 77.3887 381.0328 52.3887 386.0328Z" fill="none" stroke="#e74c3c" stroke-width="0.25" stroke-linejoin="round" stroke-linecap="round" />
    </g>
    <g id="part-0-31">
      <path id="polygon32_0" d="M74.944 270.1688L89.944 285.1688 74.944 290.1688 74.944 270.1688Z" fill="none" stroke="#3498db" stroke-width="0.25" stroke-linejoin="round" stroke-linecap="round" />
    </g>
    <g id="part-0-32">
      <path id="polygon33_0" d="M127.606 198.4709L192.606 208.4709 137.606 218.4709 127.606 198.4709Z" fill="none" stroke="#2ecc71" stroke-width="0.25" stroke-linejoin="round" stroke-linecap="round" />
    </g>
    <g id="part-0-33">
      <path id="polygon34_0" d="M80.0516 121.6823L110.0516 121.6823 120.0516 131.6823 105.0516 151.6823 85.0516 141.6823 80.0516 121.6823Z" fill="none" stroke="#f39c12" stroke-width="0.25" stroke-linejoin="round" stroke-linecap="round" />
    </g>
    <g id="part-0-34">
      <path id="polygon35_0" d="M187.9003 329.3573L192.9003 344.3573 192.9003 364.3573 177.9003 354.3573 177.9003 334.3573 187.9003 329.3573Z" fill="none" stroke="#9b59b6" stroke-width="0.25" stroke-linejoin="round" stroke-linecap="round" />
    </g>
    <g id="part-0-35">
      <path id="polygon36_0" d="M73.8385 274.9522L53.838499999999996 279.9522 43.838499999999996 289.9522 48.838499999999996 269.9522 73.8385 259.9522 73.8385 274.9522Z" fill="none" stroke="#1abc9c" stroke-width="0.25" stroke-linejoin="round" stroke-linecap="round" />
    </g>
    <g id="part-0-36">
      <path id="polygon37_0" d="M182.8932 205.6087L167.8932 190.6087 172.8932 170.6087 182.8932 160.6087 192.8932 170.6087 192.8932 195.6087 182.8932 205.6087Z" fill="none" stroke="#e74c3c" stroke-width="0.25" stroke-linejoin="round" stroke-linecap="round" />
    </g>
    <g id="part-0-37">
      <path id="polygon38_0" d="M105.2977 234.3039L115.2977 224.3039 115.2977 219.3039 120.2977 219.3039 120.2977 239.3039 105.2977 239.3039 105.2977 234.3039Z" fill="none" stroke="#3498db" stroke-width="0.25" stroke-linejoin="round" stroke-linecap="round" />
    </g>
    <g id="part-0-38">
      <path id="polygon39_0" d="M192.868 262.9018L177.868 257.9018 177.868 252.90179999999998 192.868 252.90179999999998 192.868 262.9018Z" fill="none" stroke="#2ecc71" stroke-width="0.25" stroke-linejoin="round" stroke-linecap="round" />
    </g>
    <g id="part-0-39">
      <path id="polygon40_0" d="M150.0628 167.052L125.06280000000001 172.052 125.06280000000001 177.052 110.06280000000001 182.052 100.06280000000001 172.052 120.06280000000001 152.052 140.0628 147.052 150.0628 167.052Z" fill="none" stroke="#f39c12" stroke-width="0.25" stroke-linejoin="round" stroke-linecap="round" />
    </g>
    <g id="part-0-40">
      <path id="polygon41_0" d="M21.3121 337.7897L31.312099999999994 302.7897 46.312099999999994 292.7897 41.3121 337.7897 21.3121 337.7897Z" fill="none" stroke="#9b59b6" stroke-width="0.25" stroke-linejoin="round" stroke-linecap="round" />
    </g>
    <g id="part-0-41">
      <path id="polygon42_0" d="M147.8212 277.3806L167.8212 272.3806 172.8212 257.3806 192.8212 267.3806 192.8212 287.3806 167.8212 297.3806 147.8212 277.3806Z" fill="none" stroke="#1abc9c" stroke-width="0.25" stroke-linejoin="round" stroke-linecap="round" />
    </g>
    <g id="part-0-42">
      <path id="polygon43_0" d="M192.8997 247.4647L177.8997 237.4647 182.8997 212.4647 192.8997 217.4647 192.8997 247.4647Z" fill="none" stroke="#e74c3c" stroke-width="0.25" stroke-linejoin="round" stroke-linecap="round" />
    </g>
    <g id="part-0-43">
      <path id="polygon44_0" d="M161.8507 226.6453L161.8507 216.6453 181.8507 211.6453 176.8507 231.6453 161.8507 226.6453Z" fill="none" stroke="#3498db" stroke-width="0.25" stroke-linejoin="round" stroke-linecap="round" />
    </g>
    <g id="part-0-44">
      <path id="polygon45_0" d="M100.559 180.7568L135.559 190.7568 120.559 200.7568 115.559 215.7568 100.559 200.7568 95.559 190.7568 100.559 180.7568Z" fill="none" stroke="#2ecc71" stroke-width="0.25" stroke-linejoin="round" stroke-linecap="round" />
    </g>
    <g id="part-0-45">
      <path id="polygon46_0" d="M184.3039 243.9162L154.3039 273.9162 154.3039 248.9162 164.3039 228.9162 184.3039 243.9162Z" fill="none" stroke="#f39c12" stroke-width="0.25" stroke-linejoin="round" stroke-linecap="round" />
    </g>
    <g id="part-0-46">
      <path id="polygon47_0" d="M78.0239 121.9743L83.0239 171.9743 73.0239 176.9743 58.0239 156.9743 53.0239 131.9743 78.0239 121.9743Z" fill="none" stroke="#9b59b6" stroke-width="0.25" stroke-linejoin="round" stroke-linecap="round" />
    </g>
    <g id="part-0-47">
      <path id="polygon48_0" d="M54.2625 126.8486L44.2625 141.8486 34.2625 141.8486 29.2625 126.8486 29.2625 121.8486 54.2625 126.8486Z" fill="none" stroke="#1abc9c" stroke-width="0.25" stroke-linejoin="round" stroke-linecap="round" />
    </g>
    <g id="part-0-48">
      <path id="polygon49_0" d="M126.46619999999999 238.94L121.46619999999999 223.94 126.46619999999999 203.94 136.4662 218.94 126.46619999999999 238.94Z" fill="none" stroke="#e74c3c" stroke-width="0.25" stroke-linejoin="round" stroke-linecap="round" />
    </g>
    <g id="part-0-49">
      <path id="polygon50_0" d="M5.662100000000001 206.5163L0.6620999999999988 196.5163 5.662099999999997 176.5163 0.6620999999999935 141.5163 15.662099999999997 171.5163 5.662100000000001 206.5163Z" fill="none" stroke="#3498db" stroke-width="0.25" stroke-linejoin="round" stroke-linecap="round" />
    </g>
    <g id="part-0-50">
      <path id="polygon51_0" d="M63.1067 399.0042L63.1067 389.0042 88.10669999999999 379.0042 103.10669999999999 384.0042 88.10669999999999 399.0042 63.1067 399.0042Z" fill="none" stroke="#2ecc71" stroke-width="0.25" stroke-linejoin="round" stroke-linecap="round" />
    </g>
    <g id="part-0-51">
      <path id="polygon52_0" d="M101.2421 369.3654L106.2421 349.3654 131.2421 369.3654 131.2421 379.3654 106.2421 389.3654 101.2421 369.3654Z" fill="none" stroke="#f39c12" stroke-width="0.25" stroke-linejoin="round" stroke-linecap="round" />
    </g>
    <g id="part-0-52">
      <path id="polygon53_0" d="M51.69970000000001 333.6825L71.6997 343.6825 56.69970000000001 358.6825 36.69970000000001 353.6825 31.699700000000007 343.6825 46.69970000000001 343.6825 51.69970000000001 333.6825Z" fill="none" stroke="#9b59b6" stroke-width="0.25" stroke-linejoin="round" stroke-linecap="round" />
    </g>
    <g id="part-0-53">
      <path id="polygon54_0" d="M133.0089 171.753L163.0089 181.753 143.0089 191.753 123.00890000000001 181.753 133.0089 171.753Z" fill="none" stroke="#1abc9c" stroke-width="0.25" stroke-linejoin="round" stroke-linecap="round" />
    </g>
    <g id="part-0-54">
      <path id="polygon55_0" d="M142.603 148.9615L157.603 143.9615 172.603 143.9615 167.603 168.9615 152.603 173.9615 152.603 158.9615 142.603 148.9615Z" fill="none" stroke="#e74c3c" stroke-width="0.25" stroke-linejoin="round" stroke-linecap="round" />
    </g>
    <g id="part-0-55">
      <path id="polygon56_0" d="M161.8491 304.1597L156.8491 339.1597 146.8491 359.1597 131.8491 334.1597 126.84909999999999 319.1597 161.8491 304.1597Z" fill="none" stroke="#3498db" stroke-width="0.25" stroke-linejoin="round" stroke-linecap="round" />
    </g>
    <g id="part-0-56">
      <path id="polygon57_0" d="M174.3869 199.0275L139.3869 199.0275 169.3869 179.0275 159.3869 194.0275 174.3869 199.0275Z" fill="none" stroke="#2ecc71" stroke-width="0.25" stroke-linejoin="round" stroke-linecap="round" />
    </g>
    <g id="part-0-57">
      <path id="polygon58_0" d="M10.694099999999999 291.9131L25.6941 311.9131 15.6941 326.9131 15.694100000000002 346.9131 0.6941000000000024 336.9131 5.694099999999999 316.9131 0.6940999999999988 296.9131 10.694099999999999 291.9131Z" fill="none" stroke="#f39c12" stroke-width="0.25" stroke-linejoin="round" stroke-linecap="round" />
    </g>
    <g id="part-0-58">
      <path id="polygon59_0" d="M41.4172 399.3093L16.417199999999998 384.3093 31.417199999999994 369.3093 46.417199999999994 379.3093 56.4172 394.3093 41.4172 399.3093Z" fill="none" stroke="#9b59b6" stroke-width="0.25" stroke-linejoin="round" stroke-linecap="round" />
    </g>
    <g id="part-0-59">
      <path id="polygon60_0" d="M124.9545 360.2242L139.9545 350.2242 139.9545 365.2242 134.9545 370.2242 124.9545 360.2242Z" fill="none" stroke="#1abc9c" stroke-width="0.25" stroke-linejoin="round" stroke-linecap="round" />
    </g>
  </g>
</svg>
